<?xml version="1.0" encoding="utf-8"?>
<!-- Generator: Adobe Illustrator 22.0.1, SVG Export Plug-In . SVG Version: 6.00 Build 0)  -->
<svg version="1.1" id="Layer_1" xmlns="http://www.w3.org/2000/svg" xmlns:xlink="http://www.w3.org/1999/xlink" x="0px" y="0px"
	 viewBox="0 0 841.9 595.3" style="enable-background:new 0 0 841.9 595.3;" xml:space="preserve">
<style type="text/css">
	.st0{fill:#248399;}
	.st1{fill:#3C63AE;}
	.st2{fill:#934D85;}
	.st3{fill:#CD4197;}
	.st4{fill:#73A541;}
	.st5{fill:#60A8B2;}
	.st6{fill:#AA3824;}
	.st7{fill:#84281D;}
	.st8{fill:#CF4C2D;}
	.st9{fill:#7ED0DF;}
	.st10{fill:#95C94C;}
	.st11{fill:#648F3D;}
	.st12{fill:#333333;}
	.st13{fill:#DBC53E;}
	.st14{fill:#ECDA49;}
	.st15{fill:#C9AD2E;}
	.st16{fill:#E65AA1;}
	.st17{fill:#D3682C;}
	.st18{fill:#F6893E;}
	.st19{fill:#AE5897;}
	.st20{fill:#DBC53F;}
	.st21{fill:#EDDA4B;}
	.st22{fill:#C7AD2F;}
	.st23{fill:#6E3362;}
	.st24{fill:#4E6EB5;}
	.st25{fill:#23487F;}
	.st26{fill:#FFFFFF;}
	.st27{fill:#2D9BBC;}
	.st28{fill:#41ADE2;}
	.st29{fill:#218299;}
	.st30{fill:#196C7A;}
	.st31{fill:#589370;}
	.st32{fill:#7AC79A;}
</style>
<g>
	<polygon class="st0" points="140.7,531.6 184.7,531.6 184.7,495.6 140.7,495.6 162.7,513.6 	"/>
</g>
<g>
	<polygon class="st0" points="710.6,531.6 688.6,513.6 710.6,495.6 666.6,495.6 666.6,531.6 	"/>
</g>
<g>
	<polygon class="st1" points="472.1,374.1 459.4,359.7 472.1,345.3 439.4,345.3 439.4,374.1 	"/>
</g>
<g>
	<polygon class="st1" points="369.7,345.3 382.5,359.7 369.7,374.1 402.5,374.1 402.5,345.3 	"/>
</g>
<g>
	<g>
		<path class="st2" d="M241.3,394.5l16.1-7.4l-16.1-27.3c6.8,4,17.2,10.2,31.4,16.6v34.8C258.6,404.8,248.1,398.6,241.3,394.5z"/>
	</g>
	<g>
		<path class="st2" d="M603.3,394.5l-16.1-7.4l16.1-27.3c-6.8,4-17.2,10.2-31.4,16.6v34.8C586.1,404.8,596.5,398.6,603.3,394.5z"/>
	</g>
</g>
<g>
	<polygon class="st3" points="165.1,312.4 156.1,299.7 165.1,292.4 60.4,268.3 60.4,288.3 	"/>
</g>
<g>
	<polygon class="st3" points="60.4,163.8 69.4,176.6 60.4,183.8 165.1,207.9 165.1,187.9 	"/>
</g>
<polygon class="st3" points="60.4,233.5 165.1,257.6 165.1,277.6 60.4,253.5 "/>
<g>
	<path class="st4" d="M294.4,231.7c-7.8,1.6-14.9,3.2-21.2,4.8l9.8,8.3l-9.8,13.6c6.3-1.6,13.4-3.2,21.2-4.8h0V231.7z"/>
</g>
<g>
	<path class="st4" d="M547.5,231.7c7.8,1.6,14.9,3.2,21.2,4.8l-9.8,8.3l9.8,13.6c-6.3-1.6-13.4-3.2-21.2-4.8h0V231.7z"/>
</g>
<polygon class="st5" points="179.2,399 179.2,418 68.8,452.1 68.8,433 "/>
<polygon class="st5" points="156.8,364.9 46.4,399 46.4,418 156.8,383.9 "/>
<g>
	<polygon class="st6" points="794.3,53 762.5,85.3 794.3,117.6 730.8,117.6 730.8,53 	"/>
</g>
<polygon class="st7" points="730.8,117.6 730.8,104 748.3,104 "/>
<g>
	<polygon class="st6" points="49.3,53 81,85.3 49.3,117.6 112.8,117.6 112.8,53 	"/>
</g>
<polygon class="st7" points="112.8,117.6 112.8,104 95.2,104 "/>
<rect x="95.2" y="39.3" class="st8" width="653.1" height="64.6"/>
<rect x="46.4" y="399" class="st9" width="132.8" height="19"/>
<g>
	<polygon class="st9" points="156.8,364.9 68.8,364.9 76,374.4 68.8,383.9 156.8,383.9 	"/>
</g>
<g>
	<polygon class="st9" points="156.8,433 68.8,433 68.8,452.1 156.8,452.1 149.6,442.6 	"/>
</g>
<path class="st10" d="M420.9,211.3c-53.7,0.7-103.7,8.6-134.2,16.4v22c30.5-7.8,80.5-15.7,134.2-16.4c53.7,0.7,103.7,8.6,134.2,16.4
	v-22C524.7,219.9,474.6,212,420.9,211.3z"/>
<path d="M286.8,249.7"/>
<path class="st11" d="M294.4,253.6v-5.8c-2.6,0.6-5.2,1.2-7.6,1.9L294.4,253.6z"/>
<path class="st12" d="M555.1,249.7"/>
<path class="st11" d="M547.5,253.6l7.6-4c-2.4-0.6-5-1.2-7.6-1.9V253.6z"/>
<g>
	<path class="st13" d="M235.8,179.7c-11.5,3-21.9,6.2-31.2,9.4l14.4,16.3L204.6,232c9.2-3.2,19.7-6.3,31.2-9.4l0,0V179.7z"/>
</g>
<g>
	<path class="st13" d="M607.8,179.7c11.5,3,21.9,6.2,31.2,9.4l-14.4,16.3l14.4,26.6c-9.2-3.2-19.7-6.3-31.2-9.4l0,0V179.7z"/>
</g>
<g>
	<path class="st14" d="M421.8,139.8c-78.8,1.4-152.4,16.7-197.2,32.1v42.9c44.8-15.4,118.3-30.7,197.2-32.1
		c78.8,1.4,152.4,16.7,197.2,32.1v-42.9C574.2,156.6,500.6,141.2,421.8,139.8z"/>
</g>
<path d="M224.6,214.9"/>
<g>
	<path class="st15" d="M235.8,222.6v-11.4c-3.9,1.2-7.6,2.4-11.2,3.6L235.8,222.6z"/>
</g>
<path class="st12" d="M619,214.9"/>
<path class="st15" d="M607.8,222.6l11.2-7.7c-3.5-1.2-7.3-2.4-11.2-3.6V222.6z"/>
<polygon class="st3" points="60.4,198.6 165.1,222.8 165.1,242.8 60.4,218.6 "/>
<polygon class="st16" points="60.4,198.6 165.1,187.9 165.1,207.9 60.4,218.6 "/>
<polygon class="st16" points="60.4,233.5 165.1,222.8 165.1,242.8 60.4,253.5 "/>
<polygon class="st16" points="60.4,268.3 165.1,257.6 165.1,277.6 60.4,288.3 "/>
<polygon class="st17" points="783.1,191.8 678.4,181.1 678.4,201.1 783.1,211.8 "/>
<polygon class="st17" points="783.1,226.6 678.4,215.9 678.4,235.9 783.1,246.6 "/>
<polygon class="st17" points="783.1,261.5 678.4,250.8 678.4,270.8 783.1,281.5 "/>
<g>
	<polygon class="st18" points="678.4,305.6 687.4,292.8 678.4,285.6 783.1,261.5 783.1,281.5 	"/>
</g>
<g>
	<polygon class="st18" points="783.1,156.9 774.1,169.7 783.1,176.9 678.4,201.1 678.4,181.1 	"/>
</g>
<polygon class="st18" points="783.1,226.6 678.4,250.8 678.4,270.8 783.1,246.6 "/>
<polygon class="st18" points="783.1,191.8 678.4,215.9 678.4,235.9 783.1,211.8 "/>
<g>
	<path class="st19" d="M582,414.3v-34.8c-20,12-72.5,42.5-159.7,43c-87.3-0.5-139.7-31-159.7-43v34.8c20,12,72.5,42.5,159.7,43
		C509.6,456.8,562,426.3,582,414.3z"/>
</g>
<g>
	<path d="M559.2,1052.4v-34.8c-20,12-72.5,42.5-159.7,43c-87.3-0.5-139.7-31-159.7-43v34.8c20,12,72.5,42.5,159.7,43
		C486.7,1094.9,539.2,1064.4,559.2,1052.4z"/>
</g>
<g>
	<g>
		<polygon class="st20" points="241.9,285.3 258,299.7 241.9,314.1 335.3,314.1 335.3,285.3 		"/>
	</g>
	<g>
		<polygon class="st20" points="601.7,314.1 585.6,299.7 601.7,285.3 508.2,285.3 508.2,314.1 		"/>
	</g>
</g>
<rect x="321.2" y="274.8" class="st21" width="201.2" height="28.8"/>
<polygon class="st22" points="321.2,303.6 335.3,314.1 335.3,303.6 "/>
<polygon class="st22" points="508.2,314.1 522.4,303.6 508.2,303.6 "/>
<path class="st23" d="M571.8,376.4v9c4-2.2,7.4-4.3,10.2-5.9L571.8,376.4z"/>
<path class="st12" d="M272.8,376.4"/>
<path class="st23" d="M272.8,376.4l-10.2,3.1c2.8,1.7,6.2,3.7,10.2,5.9V376.4z"/>
<rect x="390.4" y="339.1" class="st24" width="61.1" height="28.8"/>
<polygon class="st25" points="390.4,367.9 402.5,374.1 402.5,367.9 "/>
<polygon class="st25" points="439.4,374.1 451.5,367.9 439.4,367.9 "/>
<g>
	<path d="M455.8,1004.4v34.8c20-12,72.5-42.5,159.7-43c87.3,0.5,139.7,31,159.7,43v-34.8c-20-12-72.5-42.5-159.7-43
		C528.2,961.9,475.8,992.4,455.8,1004.4z"/>
</g>
<g>
	<path class="st26" d="M207.4,91c-0.4-1.1-0.6-1.7-0.6-5.2v-6.6c0-3.9-1.3-5.3-4.3-5.3h-2.3V91h-6.6V49h10c6.8,0,9.8,3.2,9.8,9.7
		v3.3c0,4.3-1.4,7.1-4.3,8.5v0.1c3.3,1.4,4.4,4.5,4.4,8.9v6.5c0,2,0.1,3.5,0.7,5.1H207.4z M200.2,55v12.9h2.6c2.5,0,4-1.1,4-4.4
		v-4.1c0-3-1-4.3-3.4-4.3H200.2z"/>
	<path class="st26" d="M217.7,49h6.6v42h-6.6V49z"/>
	<path class="st26" d="M248.9,58.6v1.5c0,4.3-1.3,7-4.3,8.4v0.1c3.5,1.4,4.9,4.5,4.9,8.9V81c0,6.5-3.4,10-10,10h-10.4V49h10
		C245.9,49,248.9,52.2,248.9,58.6z M235.7,55v11.1h2.6c2.5,0,4-1.1,4-4.4v-2.3c0-3-1-4.3-3.4-4.3H235.7z M235.7,72.1V85h3.8
		c2.2,0,3.4-1,3.4-4.1v-3.7c0-3.9-1.3-5.1-4.3-5.1H235.7z"/>
	<path class="st26" d="M273.2,58.6v1.5c0,4.3-1.3,7-4.3,8.4v0.1c3.5,1.4,4.9,4.5,4.9,8.9V81c0,6.5-3.4,10-10,10h-10.4V49h10
		C270.3,49,273.2,52.2,273.2,58.6z M260.1,55v11.1h2.6c2.5,0,4-1.1,4-4.4v-2.3c0-3-1-4.3-3.4-4.3H260.1z M260.1,72.1V85h3.8
		c2.2,0,3.4-1,3.4-4.1v-3.7c0-3.9-1.3-5.1-4.3-5.1H260.1z"/>
	<path class="st26" d="M277.3,59.1c0-6.7,3.5-10.6,10-10.6c6.5,0,10,3.8,10,10.6v21.8c0,6.7-3.5,10.6-10,10.6c-6.5,0-10-3.8-10-10.6
		V59.1z M283.9,81.3c0,3,1.3,4.1,3.4,4.1c2.1,0,3.4-1.1,3.4-4.1V58.6c0-3-1.3-4.1-3.4-4.1c-2.1,0-3.4,1.1-3.4,4.1V81.3z"/>
	<path class="st26" d="M307.6,60.6h-0.1V91h-5.9V49h8.3l6.7,25.1h0.1V49h5.9v42h-6.8L307.6,60.6z"/>
	<path class="st26" d="M356.3,58.6v1.5c0,4.3-1.3,7-4.3,8.4v0.1c3.5,1.4,4.9,4.5,4.9,8.9V81c0,6.5-3.4,10-10,10h-10.4V49h10
		C353.3,49,356.3,52.2,356.3,58.6z M343.1,55v11.1h2.6c2.5,0,4-1.1,4-4.4v-2.3c0-3-1-4.3-3.4-4.3H343.1z M343.1,72.1V85h3.8
		c2.2,0,3.4-1,3.4-4.1v-3.7c0-3.9-1.3-5.1-4.3-5.1H343.1z"/>
	<path class="st26" d="M382.2,91h-6.7l-1.1-7.6h-8.1l-1.1,7.6h-6.1l6.7-42h9.7L382.2,91z M367.2,77.7h6.4l-3.1-21.2h-0.1L367.2,77.7
		z"/>
	<path class="st26" d="M391.3,60.6h-0.1V91h-5.9V49h8.3l6.7,25.1h0.1V49h5.9v42h-6.8L391.3,60.6z"/>
	<path class="st26" d="M416.9,60.6h-0.1V91h-5.9V49h8.3l6.7,25.1h0.1V49h5.9v42H425L416.9,60.6z"/>
	<path class="st26" d="M443.1,66.7h9.1v6h-9.1V85h11.4v6h-18V49h18v6h-11.4V66.7z"/>
	<path class="st26" d="M472.4,91c-0.4-1.1-0.6-1.7-0.6-5.2v-6.6c0-3.9-1.3-5.3-4.3-5.3h-2.3V91h-6.6V49h10c6.8,0,9.8,3.2,9.8,9.7
		v3.3c0,4.3-1.4,7.1-4.3,8.5v0.1c3.3,1.4,4.4,4.5,4.4,8.9v6.5c0,2,0.1,3.5,0.7,5.1H472.4z M465.2,55v12.9h2.6c2.5,0,4-1.1,4-4.4
		v-4.1c0-3-1-4.3-3.4-4.3H465.2z"/>
	<path class="st26" d="M501.9,83.2h0.1l5-34.3h6.1l-6.5,42h-9.8l-6.5-42h6.7L501.9,83.2z"/>
	<path class="st26" d="M522.8,66.7h9.1v6h-9.1V85h11.4v6h-18V49h18v6h-11.4V66.7z"/>
	<path class="st26" d="M557.4,75.3v5.6c0,6.7-3.4,10.6-9.8,10.6c-6.5,0-9.8-3.8-9.8-10.6V59.1c0-6.7,3.4-10.6,9.8-10.6
		c6.5,0,9.8,3.8,9.8,10.6v4.1h-6.2v-4.5c0-3-1.3-4.1-3.4-4.1c-2.1,0-3.4,1.1-3.4,4.1v22.7c0,3,1.3,4.1,3.4,4.1
		c2.1,0,3.4-1.1,3.4-4.1v-6H557.4z"/>
	<path class="st26" d="M559.5,49h20.4v6H573v36h-6.6V55h-6.9V49z"/>
	<path class="st26" d="M582.2,59.1c0-6.7,3.5-10.6,10-10.6c6.5,0,10,3.8,10,10.6v21.8c0,6.7-3.5,10.6-10,10.6c-6.5,0-10-3.8-10-10.6
		V59.1z M588.8,81.3c0,3,1.3,4.1,3.4,4.1s3.4-1.1,3.4-4.1V58.6c0-3-1.3-4.1-3.4-4.1s-3.4,1.1-3.4,4.1V81.3z"/>
	<path class="st26" d="M620.3,91c-0.4-1.1-0.6-1.7-0.6-5.2v-6.6c0-3.9-1.3-5.3-4.3-5.3h-2.3V91h-6.6V49h10c6.8,0,9.8,3.2,9.8,9.7
		v3.3c0,4.3-1.4,7.1-4.3,8.5v0.1c3.3,1.4,4.4,4.5,4.4,8.9v6.5c0,2,0.1,3.5,0.7,5.1H620.3z M613.1,55v12.9h2.6c2.5,0,4-1.1,4-4.4
		v-4.1c0-3-1-4.3-3.4-4.3H613.1z"/>
	<path class="st26" d="M639.5,48.5c6.4,0,9.7,3.8,9.7,10.6v1.3H643v-1.7c0-3-1.2-4.1-3.3-4.1c-2.1,0-3.3,1.1-3.3,4.1
		c0,3.1,1.3,5.3,5.6,9.1c5.5,4.9,7.3,8.3,7.3,13.1c0,6.7-3.4,10.6-9.8,10.6s-9.8-3.8-9.8-10.6v-2.6h6.2v3c0,3,1.3,4.1,3.4,4.1
		c2.1,0,3.4-1.1,3.4-4.1c0-3.1-1.3-5.3-5.6-9.1c-5.5-4.9-7.3-8.3-7.3-13.1C629.8,52.3,633.1,48.5,639.5,48.5z"/>
</g>
<polygon class="st26" points="140.7,53.4 146.1,64.3 158.1,66.1 149.4,74.6 151.5,86.6 140.7,80.9 129.9,86.6 131.9,74.6 
	123.2,66.1 135.3,64.3 "/>
<rect x="548.2" y="505.1" class="st27" width="131.2" height="36"/>
<rect x="171.9" y="505.1" class="st27" width="131.2" height="36"/>
<polygon class="st26" points="699.3,54.5 704.7,65.5 716.7,67.2 708,75.7 710.1,87.8 699.3,82.1 688.5,87.8 690.5,75.7 681.8,67.2 
	693.9,65.5 "/>
<rect x="288.1" y="518.4" class="st28" width="275.1" height="36"/>
<polygon class="st29" points="563.2,518.4 548.2,505.1 548.2,518.4 "/>
<polygon class="st29" points="303.1,505.1 288.1,518.4 303.1,518.4 "/>
<polygon class="st30" points="184.7,505.1 184.7,495.6 171.9,505.1 "/>
<polygon class="st30" points="679.4,505.1 666.6,495.6 666.6,505.1 "/>
<rect x="664.4" y="399" class="st31" width="132.8" height="19"/>
<g>
	<polygon class="st31" points="774.8,364.9 686.8,364.9 694,374.4 686.8,383.9 774.8,383.9 	"/>
</g>
<g>
	<polygon class="st31" points="774.8,433 686.8,433 686.8,452.1 774.8,452.1 767.6,442.6 	"/>
</g>
<polygon class="st32" points="797.2,399 797.2,418 686.8,452.1 686.8,433 "/>
<polygon class="st32" points="774.8,364.9 664.4,399 664.4,418 774.8,383.9 "/>
<polygon class="st26" points="576.7,167.5 579,176.3 587.6,179.4 579.9,184.4 579.6,193.5 572.5,187.7 563.7,190.3 567.1,181.7 
	561.9,174.2 571.1,174.7 "/>
<polygon class="st26" points="261.5,167.6 267.3,174.6 276.4,173.9 271.5,181.6 275.1,190 266.2,187.7 259.3,193.6 258.8,184.5 
	250.9,179.8 259.4,176.5 "/>
<polygon class="st26" points="423.5,148.7 427.5,156.9 436.6,158.3 430,164.6 431.6,173.6 423.5,169.4 415.4,173.6 417,164.6 
	410.4,158.3 419.5,156.9 "/>
<polygon class="st26" points="341.8,154.1 346.7,161.8 355.8,162.1 350,169.2 352.5,177.9 344,174.6 336.4,179.7 337,170.6 
	329.8,164.9 338.6,162.6 "/>
<polygon class="st26" points="503,154.8 506.2,163.4 515,165.7 507.8,171.3 508.4,180.5 500.8,175.4 492.3,178.8 494.8,170 
	489,162.9 498.1,162.6 "/>
</svg>
